<svg width="658" height="565" viewBox="0 0 658 565" fill="none" xmlns="http://www.w3.org/2000/svg">
<path fill-rule="evenodd" clip-rule="evenodd" d="M559.315 110.066C452.85 46.8254 369.84 232.458 309.547 255.827C188.035 302.923 -37.6628 343.885 5.37998 435.448C64.4809 561.171 270.119 573.715 417.174 561.171C608.447 544.854 768.633 234.402 559.315 110.066Z" fill="#765DD9"/>
<path fill-rule="evenodd" clip-rule="evenodd" d="M258.619 108.074C254.455 89.2551 265.798 58.0176 286.064 45.4578C306.329 32.8979 332.252 32.0375 354.822 39.4961C354.102 17.3198 376.214 -1.70996 397.955 0.122226C419.695 1.95441 437.734 21.8073 440.655 43.796C442.931 60.929 434.284 81.3369 417.562 84.4402C423.473 105.921 426.76 128.521 423.515 150.582C420.271 172.643 409.949 194.192 392.53 207.744C387.72 214.324 391.353 224.249 397.684 229.324C404.015 234.398 412.21 236.182 419.786 238.983C451.53 250.717 473.88 282.571 479.09 316.514C484.299 350.456 473.894 385.658 455.088 414.194C442.208 433.74 424.686 451.098 402.764 458.615C371.993 469.166 338.256 458.893 308.376 445.96C296.986 441.031 285.387 435.428 277.347 425.856C268.728 415.593 252.438 421.136 240.691 427.413C248.502 430.709 256.313 434.005 264.124 437.301C265.803 438.01 267.624 438.851 268.402 440.521C270.04 444.037 266.004 447.42 262.588 449.17C258.916 451.051 255.245 452.931 251.574 454.811C229.039 466.353 205.569 478.145 180.348 478.858C152.774 479.638 126.727 467.102 101.911 454.851C99.1525 453.49 96.2285 451.974 94.7287 449.254C93.2289 446.534 94.0672 442.292 97.0315 441.495C124.871 434.006 151.229 420.864 174.099 403.066C172.35 391.987 172.762 380.559 175.305 369.64C175.673 368.06 176.202 366.329 177.586 365.521C180.988 363.533 183.943 368.769 184.544 372.712C186.061 382.666 187.578 392.62 189.096 402.573C207.314 400.523 224.996 393.717 239.983 382.984C228.294 373.409 216.604 363.834 204.915 354.259C198.17 348.735 191.66 345.43 188.018 334.612C185.589 327.4 187.549 319.992 193.897 312.387C186.811 276.467 183.71 249.389 184.595 231.154C184.831 226.287 185.367 221.032 188.588 217.425C194.274 211.057 205.438 213.803 210.628 220.595C215.817 227.387 216.686 236.502 217.357 245.077C237.117 242.621 256.878 240.166 276.638 237.71C283.868 236.812 291.355 235.934 298.313 238.123C307.043 240.868 314.054 248.645 315.989 257.728C324.328 255.436 333.41 252.613 338.119 245.248C342.828 237.883 338.839 225.074 330.21 225.453C303.216 226.641 276.817 206.268 270.673 179.507C269.11 172.701 268.503 165.138 263.805 160.037C256.361 151.953 250.689 141.533 250.726 130.457C250.762 119.382 255.324 118.061 258.619 108.074ZM97.4877 448.914C98.0955 449.838 99.1563 450.322 100.161 450.759C110.469 455.246 120.777 459.733 131.085 464.22C135.775 466.261 140.481 468.308 145.386 469.736C159.065 473.717 173.806 472.746 187.406 476.996C189.056 477.511 190.827 476.979 192.47 476.441C204.332 472.554 216.055 468.228 227.607 463.472C239.693 458.497 251.67 453.008 262.4 445.475C263.376 444.79 264.39 444.028 264.835 442.91C265.281 441.792 264.87 440.237 263.729 439.907C256.487 437.815 249.35 435.348 242.355 432.517C240.107 431.607 237.575 430.31 237.098 427.897C230.936 428.148 225.547 432.101 221.001 436.341C216.456 440.581 212.186 445.369 206.585 447.995C200.985 450.621 193.467 450.394 189.587 445.518C189.173 444.998 188.757 444.398 188.12 444.229C187.482 444.06 186.664 444.705 186.961 445.303C187.73 446.852 186.078 448.811 184.375 448.703C182.672 448.595 181.341 447.018 180.922 445.336C180.503 443.653 178.227 446.658 174.93 447.159C171.632 447.659 168.134 445.507 167.039 442.304C166.136 439.664 162.597 439.618 159.893 439.124C153.744 438.001 149.074 431.447 149.939 425.154C132.267 431.148 114.916 438.12 97.9867 446.027C96.9936 446.491 96.88 447.991 97.4877 448.914Z" fill="white"/>
<path fill-rule="evenodd" clip-rule="evenodd" d="M390.452 218.8C391.313 223.342 393.871 227.742 397.276 230.472C403.607 235.546 417.838 240.771 425.414 243.572C426.104 243.827 422.217 246.059 417.199 250.997C403.614 264.364 373.909 288.3 344.89 276.271C341.498 274.865 338.662 273.247 336.352 271.531C334.223 269.95 353.761 272.227 372.026 268.706C390.39 265.164 407.476 255.808 402.903 248.391C398.604 241.419 386.514 229.61 385.571 222.664C384.315 213.41 389.712 214.896 390.452 218.8Z" fill="#E7EAEE"/>
<path fill-rule="evenodd" clip-rule="evenodd" d="M97.1147 446.286C97.1147 442.579 108.607 439.579 128.254 432.063C141.766 426.893 168.104 411.934 181.063 411.237C189.686 410.774 224.145 423.605 246.634 432.82C257.942 437.454 266.665 440.357 266.665 441.843C266.665 444.829 242.655 459.244 218.116 468.719C206.138 473.343 194.901 477.485 184.595 477.205C153.175 476.352 97.1147 455.671 97.1147 446.286Z" fill="white"/>
<path fill-rule="evenodd" clip-rule="evenodd" d="M540.993 138.391C495.937 157.963 458.298 191.408 422.435 225.418L420.242 227.501C418.15 229.489 414.974 231.569 412.717 229.777L419.685 223.325C456.147 189.631 493.846 156.221 538.959 136.371C573.644 121.109 573.275 124.367 540.993 138.391ZM346.918 464.411L368.054 487.827C369.09 488.975 370.169 490.206 370.458 491.735C370.748 493.265 369.877 495.133 368.353 495.295L324.836 499.923C317.608 500.692 310.237 495.595 308.156 488.513C306.075 481.43 309.406 473.134 315.701 469.441C321.996 465.747 330.631 466.912 335.857 472.049C337.152 473.322 339.425 472.241 340.344 470.667C341.263 469.092 341.461 467.161 342.411 465.606C343.36 464.05 345.701 463.062 346.918 464.411ZM311.826 477.927C309.127 483.136 310.834 490.192 315.452 493.741C317.716 495.48 320.495 496.412 323.295 496.872C327.251 497.52 331.84 497.029 334.383 493.88C335.311 492.731 335.88 491.321 336.268 489.887C337.561 485.113 336.904 479.825 334.484 475.528C333.825 474.359 332.812 473.138 331.488 473.196C330.859 473.224 330.275 473.547 329.648 473.613C328.606 473.722 327.64 473.117 326.69 472.667C321.443 470.181 314.524 472.718 311.826 477.927ZM345.041 469.108C344.21 472.632 342.491 475.935 340.092 478.615C339.417 479.37 339.582 480.537 339.719 481.548C340.386 486.471 339.284 491.623 336.666 495.82C340.956 494.786 345.343 494.169 349.748 493.978C355.786 493.717 362.086 494.21 367.621 491.739C364.664 490.431 362.154 488.102 360.602 485.228C359.689 483.538 358.425 482.075 357.173 480.627L347.549 469.504C346.854 468.701 345.286 468.067 345.041 469.108ZM235.752 468.897C237.132 473.28 242.322 474.782 246.819 475.571L276.827 480.668C283.766 481.846 290.888 483.023 297.788 481.631C299.09 481.369 299.779 483.472 298.92 484.501C298.061 485.53 296.566 485.652 295.239 485.657C289.227 485.677 283.25 484.864 277.3 483.955L270.963 482.972C259.746 481.219 248.535 479.352 237.556 476.446C235.677 475.949 233.73 475.38 232.292 474.053C230.853 472.727 230.105 470.409 231.117 468.724C232.129 467.038 235.16 467.016 235.752 468.897ZM397.955 0.122226C419.695 1.95441 437.734 21.8073 440.655 43.796C442.931 60.929 434.284 81.3369 417.562 84.4402C423.473 105.921 426.76 128.521 423.515 150.582C420.271 172.643 409.949 194.192 392.53 207.744C387.72 214.324 391.353 224.249 397.684 229.324C404.015 234.398 412.21 236.182 419.786 238.983C451.53 250.717 473.88 282.571 479.09 316.514C484.299 350.456 473.894 385.658 455.088 414.194C442.208 433.74 424.686 451.098 402.764 458.615C372.301 469.061 338.93 459.097 309.274 446.348L308.376 445.96C297.224 441.133 285.871 435.661 277.854 426.449L277.347 425.856C268.728 415.593 252.438 421.136 240.691 427.413L264.124 437.301C265.803 438.01 267.624 438.851 268.402 440.521C270.04 444.037 266.004 447.42 262.588 449.17L248.828 456.216C227.133 467.291 204.547 478.174 180.348 478.858C153.095 479.629 127.333 467.392 102.777 455.279L101.219 454.507C98.675 453.229 96.1036 451.747 94.7287 449.254C93.2289 446.534 94.0672 442.292 97.0315 441.495C124.871 434.006 151.229 420.864 174.099 403.066C172.35 391.987 172.762 380.559 175.305 369.64L175.435 369.109C175.801 367.687 176.356 366.239 177.586 365.521C180.988 363.533 183.943 368.769 184.544 372.712L189.096 402.573C207.314 400.523 224.996 393.717 239.983 382.984L203.973 353.486C197.525 348.18 190.998 342.445 188.018 334.612C184.892 326.398 187.407 315.263 195.483 312.084C196.12 280.968 194.508 249.805 190.662 218.929C185.346 249.767 189.619 281.383 193.897 312.387C186.561 286.556 183.384 259.508 184.527 232.646L184.595 231.154C184.831 226.287 185.367 221.032 188.588 217.425C194.274 211.057 205.438 213.803 210.628 220.595C215.817 227.387 216.686 236.502 217.357 245.077L277.997 237.543C284.802 236.714 291.789 236.071 298.313 238.123C307.043 240.868 314.054 248.645 315.989 257.728L317.411 257.333C325.342 255.102 333.676 252.196 338.119 245.248C342.778 237.961 338.923 225.346 330.484 225.446L330.21 225.453C303.216 226.641 276.817 206.268 270.673 179.507C269.11 172.701 268.503 165.138 263.805 160.037C256.361 151.953 250.689 141.533 250.726 130.457C250.762 119.382 257.705 107.96 268.279 105.313C278.852 102.665 291.366 111.638 290.453 122.674C295.583 122.143 300.83 122.822 305.666 124.643C302.908 117.081 310.056 108.734 317.912 107.637C325.768 106.539 333.423 110.53 339.956 115.101C346.489 119.673 352.731 125.055 360.327 127.371L360.677 126.547C362.246 122.82 363.692 118.838 362.901 114.898C362.051 110.665 357.363 107.005 353.567 108.943C350.902 101.177 346.662 93.9753 341.19 87.9198L325.982 95.2124C324.023 92.2277 322.823 88.7321 322.529 85.1556C312.488 90.9922 301.589 95.2997 290.308 97.8903L291.462 89.1296L257.75 106.94C252.772 83.3391 265.798 58.0176 286.064 45.4578C306.329 32.8979 332.252 32.0375 354.822 39.4961C354.102 17.3198 376.214 -1.70996 397.955 0.122226ZM563.807 384.783C544.385 389.549 525.531 396.707 507.788 406.049L506.505 406.73C496.674 411.999 487.024 418.311 480.861 427.678C485.023 426.944 489.466 428.048 492.827 430.649C494.949 432.293 496.723 434.757 496.596 437.467C496.531 438.872 495.957 440.213 495.184 441.379C492.16 445.934 485.759 447.784 480.833 445.526C475.906 443.267 473.029 437.165 474.382 431.844C453.481 439.102 435.513 454.718 425.183 474.57L424.838 475.24C424.329 476.24 423.707 477.358 422.628 477.607C421.144 477.948 419.823 476.263 419.891 474.717C419.958 473.171 420.932 471.839 421.874 470.623C434.053 454.893 448.288 439.92 466.503 432.327L467.875 431.766C472.172 430.033 476.67 428.331 479.445 424.633C486.176 415.665 495.866 409.509 505.705 404.299C514.51 399.635 523.619 395.565 532.952 392.122C542.318 388.667 551.894 385.848 561.491 383.117L594 373.911C585.207 380.196 574.254 382.218 563.807 384.783ZM149.939 425.154C132.267 431.148 114.916 438.12 97.9867 446.027C96.9936 446.491 96.88 447.991 97.4877 448.914C98.0955 449.838 99.1563 450.322 100.161 450.759L131.085 464.22C135.775 466.261 140.481 468.308 145.386 469.736C159.065 473.717 173.806 472.746 187.406 476.996C189.056 477.511 190.827 476.979 192.47 476.441C204.332 472.554 216.055 468.228 227.607 463.472C239.693 458.497 251.67 453.008 262.4 445.475C263.376 444.79 264.39 444.028 264.835 442.91C265.281 441.792 264.87 440.237 263.729 439.907C256.487 437.815 249.35 435.348 242.355 432.517L241.87 432.316C239.755 431.416 237.541 430.137 237.098 427.897C230.936 428.148 225.547 432.101 221.001 436.341C216.456 440.581 212.186 445.369 206.585 447.995C200.985 450.621 193.467 450.394 189.587 445.518L189.337 445.201C188.998 444.775 188.629 444.365 188.12 444.229C187.482 444.06 186.664 444.705 186.961 445.303C187.73 446.852 186.078 448.811 184.375 448.703C182.672 448.595 181.341 447.018 180.922 445.336C180.652 444.254 180.676 443.136 180.805 442.021L180.837 441.747C180.08 444.475 177.707 446.737 174.93 447.159C171.632 447.659 168.134 445.507 167.039 442.304C166.136 439.664 162.597 439.618 159.893 439.124C153.744 438.001 149.074 431.447 149.939 425.154ZM191.702 320.115C188.059 326.705 191.443 335.046 195.929 341.073C209.999 359.976 233.566 369.047 249.645 386.212C253.686 390.525 257.207 395.304 260.684 400.1L271.612 415.195C273.62 417.97 275.635 420.753 277.979 423.24C284.09 429.726 292.136 433.911 300.095 437.806C316.243 445.709 332.856 452.971 350.388 456.744C367.921 460.516 386.549 460.645 403.418 454.493C419.207 448.735 432.811 437.692 443.381 424.445C453.7 411.515 461.273 396.526 467.344 381.053L467.785 379.92C468.659 377.663 469.517 375.302 469.336 372.884C469.144 370.327 467.804 368.001 466.241 365.989C460.279 358.318 450.316 353.979 440.774 355.178C431.382 356.358 422.781 362.987 419.341 371.944L419.181 372.373C411.704 392.988 393.085 408.493 372.169 413.995C351.254 419.497 328.504 415.554 309.413 405.269C290.322 394.984 274.743 378.703 263.128 360.176L262.494 359.153C260.396 355.727 258.488 352.123 257.75 348.171C256.937 343.824 257.763 338.935 260.85 335.816C262.889 333.756 265.79 332.548 267.273 330.044C268.756 327.54 267.015 323.118 264.279 324.012L262.454 324.6C249.879 328.579 235.29 331.666 225.174 323.385L224.202 322.594C219.482 318.779 214.437 315.138 208.573 313.826C202.305 312.423 194.847 314.424 191.702 320.115ZM241.827 386.923C226.575 396.725 209.362 403.356 191.552 406.29C189.201 406.677 188.569 409.778 188.532 412.2C188.415 419.899 188.781 427.606 189.629 435.257C191.558 434.334 192.347 432.025 193.662 430.318C194.978 428.612 197.979 427.677 198.996 429.583C199.706 430.915 198.758 432.582 197.548 433.465C196.338 434.348 194.849 434.826 193.77 435.87C191.085 438.468 192.488 443.576 195.76 445.346C199.031 447.116 203.169 446.192 206.305 444.185C209.442 442.178 211.865 439.235 214.524 436.611C220.212 430.997 227.169 426.723 234.7 424.214C244.261 421.028 254.907 420.555 263.318 414.941C263.885 414.563 264.471 414.119 264.685 413.465C264.977 412.572 264.483 411.644 263.959 410.849L253.895 395.986C252.292 393.619 250.447 391.076 247.701 390.398C246.445 390.088 245.106 390.208 243.873 389.813C242.641 389.417 241.48 388.189 241.827 386.923ZM171.564 408.514C167.64 410.377 165.318 414.758 164.802 419.131C164.285 423.504 165.3 427.907 166.505 432.137C167.245 434.734 168.065 437.323 169.289 439.723C170.069 441.254 171.102 442.78 172.666 443.445C174.23 444.111 176.4 443.513 176.908 441.868C177.117 441.19 177.024 440.458 176.902 439.759C176.447 437.13 175.63 434.567 174.483 432.166L174.002 431.193C173.312 429.79 172.663 428.134 173.549 426.909C174.396 425.739 176.478 425.255 176.279 423.817L174.335 409.767C174.279 409.356 174.212 408.922 173.95 408.605C173.398 407.937 172.342 408.145 171.564 408.514ZM482.654 430.184C481.358 430.178 479.995 430.36 478.955 431.145C478.346 431.605 477.886 432.248 477.562 432.945C476.195 435.894 477.456 439.684 480.047 441.604C482.638 443.524 486.228 443.704 489.227 442.554C491.521 441.674 493.727 439.682 493.65 437.19C493.59 435.223 492.122 433.582 490.504 432.505C488.192 430.966 485.417 430.196 482.654 430.184ZM178.926 368.699C178.595 368.95 178.431 369.364 178.291 369.759C176.25 375.517 176.001 381.759 176.057 387.88C176.198 403.225 178.136 418.553 181.818 433.435L182.001 434.159C182.753 437.065 183.782 440.046 186.113 441.843C186.546 418.259 185.042 394.638 181.62 371.308C181.398 369.794 180.135 367.786 178.926 368.699ZM160.552 419.392C160.065 419.531 159.752 420.003 159.509 420.454C157.519 424.147 157.385 428.813 159.159 432.617C159.954 434.323 161.318 435.982 163.163 436.191C163.915 435.239 163.571 433.866 163.149 432.699L162.786 431.712C161.432 427.979 160.32 423.938 161.514 420.186C161.669 419.696 161.039 419.253 160.552 419.392ZM153.914 424.507C152.519 427.662 153.14 431.633 155.43 434.191C156.376 433.208 155.96 431.598 155.637 430.263C155.132 428.173 155.018 425.987 155.303 423.855C154.951 423.329 154.17 423.927 153.914 424.507ZM183.325 312.051C185.44 313.904 186.785 317.903 184.273 319.141C182.663 319.935 180.84 318.775 179.32 317.816C171.423 312.832 161.327 312.465 152.374 315C143.421 317.535 135.418 322.699 127.906 328.264C120.425 333.806 113.212 339.887 107.587 347.361C101.962 354.836 97.9836 363.843 97.6572 373.25C97.2659 384.522 102.054 395.298 107.59 405.07C111.119 411.299 115.098 417.44 120.576 421.962L121.702 422.868C123.256 424.137 124.851 425.71 124.455 427.619C119.086 427.372 115.189 422.486 112.232 417.922C108.028 411.43 104.195 404.69 100.76 397.746C97.9043 391.972 95.2937 385.956 94.426 379.553C92.7941 367.511 97.601 355.267 105.072 345.779C112.544 336.291 122.487 329.171 132.544 322.603C140.183 317.614 148.044 312.828 156.62 309.797C165.463 306.672 176.231 305.836 183.325 312.051ZM410.274 259.012C397.557 271.085 380.654 278.502 363.293 279.625C355.621 280.122 347.698 279.376 340.755 276.016C333.813 272.656 327.965 266.392 326.351 258.747L325.775 258.927C320.75 260.544 314.997 263.471 315.047 268.738C315.262 291.077 314.751 313.422 313.515 335.727C313.278 340.007 311.676 345.625 307.463 345.499C292.495 345.052 277.43 348.567 264.15 355.605C279.097 379.446 300.354 400.291 326.795 409.023C353.236 417.755 385.125 412.298 403.654 391.219C409.593 384.462 413.965 376.473 418.174 368.471L419.143 366.625C420.038 364.917 420.95 362.889 420.154 361.132C419.646 360.01 420.741 358.844 421.747 358.152C436.532 347.974 458.547 350.735 470.458 364.262C469.514 362.385 470.372 359.797 472.241 358.884C473.727 361.312 474.041 364.445 473.068 367.128C473.712 368.054 474.893 366.564 474.995 365.434C476.583 347.85 476.459 330.107 474.624 312.548C473.962 306.216 473.063 299.845 470.835 293.895C468.882 288.676 465.947 283.893 462.731 279.368C455.331 268.958 446.335 259.724 436.168 252.102L435.429 251.556C433.817 250.382 432.12 249.3 430.216 248.773C422.676 246.685 415.986 253.589 410.274 259.012ZM307.546 248.897C299.139 251.775 290.036 251.221 281.188 251.843C268.718 252.72 256.417 256.018 245.144 261.508C240.288 263.872 235.591 266.651 230.456 268.296C219.55 271.788 207.049 269.631 197.886 262.676C195.91 278.014 196.493 293.69 199.601 308.833C199.801 309.806 200.43 311.05 201.364 310.758C207.562 308.822 214.227 311.561 219.737 315.035C225.247 318.509 230.426 322.841 236.684 324.56C244.026 326.577 251.807 324.713 259.074 322.37L259.618 322.193C263.343 320.976 268.161 319.962 270.55 323.114C272.565 325.772 271.293 329.742 269.159 332.303C267.026 334.864 264.134 336.767 262.393 339.619C260.257 343.121 260.246 347.85 262.366 351.362C276.245 345.7 291.1 342.524 306.045 342.023C309.042 341.923 310.094 337.977 310.278 334.933C311.892 308.257 312.387 281.511 311.763 254.791C311.696 251.943 310.2 247.989 307.546 248.897ZM532.251 321.033L532.845 321.336C536.525 323.239 540.442 325.773 540.99 329.873C541.171 331.222 540.944 332.594 540.628 333.918C540.191 335.752 539.526 337.632 538.125 338.868C536.64 340.178 534.553 340.55 532.588 340.472C528.719 340.32 524.847 338.486 522.607 335.275C520.366 332.064 520.005 327.471 522.096 324.157C524.186 320.843 528.782 319.284 532.251 321.033ZM526.512 325.619C524.219 326.592 523.393 329.746 524.351 332.078C525.308 334.41 527.581 335.945 529.942 336.732C532.357 337.536 535.468 337.47 536.907 335.34C537.386 334.631 537.613 333.777 537.746 332.927C538.034 331.076 537.859 329.028 536.687 327.583C535.235 325.792 532.758 325.433 530.444 325.3L529.869 325.271C528.736 325.219 527.56 325.175 526.512 325.619ZM237.023 277.403C237.313 278.522 237.09 279.704 236.892 280.844C235.496 288.874 235.395 297.136 236.591 305.199L236.812 306.627C236.958 307.636 237.018 308.702 236.447 309.514C235.79 310.452 233.946 310.357 233.854 309.209C233.069 299.439 232.565 289.646 232.345 279.846C232.303 277.974 232.784 275.484 234.619 275.341C235.754 275.252 236.733 276.283 237.023 277.403ZM172.428 257.824C173.786 258.239 175.09 259.185 175.483 260.57C175.876 261.955 174.981 263.706 173.566 263.796C172.248 263.881 171.241 262.66 170.03 262.124C167.855 261.161 165.415 262.505 163.415 263.803L162.397 264.471C160.478 265.757 158.618 267.2 157.564 269.25C156.485 271.347 156.395 273.813 156.428 276.179C156.452 277.825 156.527 279.494 157.028 281.059C158.113 284.453 161.209 286.997 164.643 287.733C168.077 288.469 171.75 287.515 174.655 285.512L175.224 285.119C175.737 284.775 176.275 284.475 176.878 284.446C177.708 284.405 178.616 285.201 178.334 285.996C178.25 286.234 178.076 286.427 177.902 286.608C173.154 291.57 164.954 292.632 159.134 289.039C158.096 288.398 157.128 287.625 156.344 286.682C153.986 283.848 153.546 279.877 153.481 276.165C153.446 274.156 153.495 272.117 154.056 270.19C155.269 266.028 158.696 262.937 162.259 260.546C165.284 258.516 168.958 256.762 172.428 257.824ZM144.955 249.285L156.793 263.584C156.142 264.3 155.001 264.347 154.121 263.958C153.339 263.612 152.715 262.994 152.127 262.359L145.181 254.76C144.234 262.472 141.94 270.011 138.438 276.918C138.097 277.591 139.063 278.158 139.803 278.236C141.609 278.424 143.436 278.214 145.218 277.855L146.136 277.667C147.575 277.376 149.05 277.148 150.391 277.688C152.02 278.345 153.025 280.755 151.719 281.943C150.914 282.675 149.694 282.584 148.623 282.449L137.093 280.999L136.739 280.947C135.601 280.757 134.35 280.304 134.183 279.188C134.082 278.515 134.45 277.873 134.793 277.289C138.897 270.323 141.631 262.527 142.792 254.492L142.967 253.218C143.192 251.654 143.591 249.958 144.955 249.285ZM548.288 271.75C549.717 272.778 551.065 274.797 549.958 276.176C549.265 277.039 547.93 277.06 546.935 276.596C545.939 276.132 545.165 275.299 544.306 274.609C540.784 271.776 535.493 271.478 531.684 273.897C531.142 274.241 530.602 274.669 530.382 275.279C530.162 275.89 530.405 276.71 531.018 276.894C535.881 274.799 541.677 275.092 546.311 277.667C546.981 278.039 547.684 278.534 547.849 279.292C548.014 280.05 547.213 280.959 546.547 280.58C543.524 278.858 539.915 278.225 536.498 278.816C534.906 279.092 533.348 279.624 531.733 279.676C530.118 279.728 528.352 279.18 527.495 277.788C526.704 276.502 526.892 274.768 527.663 273.47C528.435 272.173 529.699 271.254 531.021 270.554C536.404 267.705 543.335 268.185 548.288 271.75ZM386.999 202.233C375.456 212.103 361.891 219.514 347.429 223.86L346.464 224.145C344.586 224.69 342.224 225.899 342.619 227.844L342.862 229.051C343.583 232.68 344.195 236.375 343.68 240.026C343.126 243.964 340.991 247.905 337.459 249.56L337.134 249.704C330.845 252.337 329.962 261.892 334.086 267.393C338.21 272.893 345.362 275.023 352.118 275.818C371.946 278.15 392.638 271.388 407.42 257.746C412.781 252.798 417.579 246.875 424.217 243.935L407.617 237.755C403.139 236.088 398.602 234.39 394.704 231.596C390.807 228.802 387.556 224.734 386.759 219.952C385.783 214.095 388.544 207.963 386.999 202.233ZM195.518 218.07C195.101 218.258 194.676 218.509 194.475 218.925C194.275 219.342 194.342 219.835 194.413 220.293L198.217 244.677C199.337 251.863 200.912 259.826 206.739 264.047C213.121 268.67 221.887 266.858 229.319 264.219L229.716 264.077C243.551 259.079 256.867 252.121 271.367 249.781C281.778 248.1 292.696 248.819 302.54 244.986C298.94 239.458 291.138 239.487 284.613 240.212L231.298 246.375C227.168 246.853 222.83 247.41 219.476 249.907C218.008 251 216.618 252.501 214.801 252.577C213.033 252.652 211.496 250.032 212.882 249.069L213.004 248.993C214.524 248.142 214.421 245.923 214.11 244.188L212.498 235.195C211.683 230.734 210.687 226.195 208.063 222.553C205.229 218.62 199.899 216.09 195.518 218.07ZM563.58 254.515C564.865 256.038 564.92 258.374 564.064 260.182C563.207 261.99 561.584 263.319 559.829 264.235C557.711 265.34 555.379 265.917 553.041 266.409L551.873 266.65C551.415 266.744 550.932 266.836 550.49 266.686C550.121 266.561 549.823 266.28 549.581 265.972C548.375 264.434 548.418 262.165 549.233 260.382C550.049 258.599 551.509 257.213 553.009 255.972C554.542 254.704 556.211 253.509 558.133 253.045C560.056 252.581 562.293 252.99 563.58 254.515ZM557.276 257.191L556.661 257.612C555.741 258.253 554.854 258.953 554.236 259.888C553.48 261.031 553.217 262.625 553.963 263.774L558.908 260.976C559.714 260.52 560.548 260.038 561.071 259.266C561.594 258.494 561.698 257.341 561.052 256.673C560.082 255.669 558.428 256.412 557.276 257.191ZM478.393 202.145C478.738 202.287 478.971 202.605 479.173 202.93L486.418 214.965C487.713 217.116 490.658 217.356 493.132 217.179C497.872 216.839 502.567 215.855 507.053 214.261C507.806 213.993 508.519 214.967 508.357 215.761C508.195 216.555 507.524 217.12 506.895 217.619L496.014 226.245C494.678 226.149 495.057 223.924 496.141 223.124L496.462 222.896C497.506 222.179 498.773 221.471 498.707 220.241L492.419 222.239C491.218 222.62 489.883 222.995 488.741 222.459C487.982 222.103 487.45 221.403 486.969 220.699L478.98 208.839L478.843 219.225C478.831 220.076 478.796 221 478.264 221.658C477.887 222.126 477.322 222.377 476.759 222.588L465.736 226.611C468.679 229.605 474.189 226.455 477.712 228.711C480.126 230.257 480.538 233.701 480.017 236.553C479.496 239.405 478.303 242.18 478.458 245.077C480.469 243.592 481.947 241.376 482.557 238.926C482.803 237.938 482.925 236.887 483.465 236.029C484.954 233.664 488.511 234.145 490.977 235.41C493.442 236.675 496 238.496 498.697 237.895L494.784 231.531C494.427 230.95 494.057 230.322 494.088 229.638C494.12 228.954 494.759 228.262 495.403 228.461C495.685 228.548 495.896 228.775 496.082 229.013L504.812 240.523C501.746 242.579 497.701 241.283 494.161 240.291L493.636 240.152C490.182 239.282 485.967 239.196 484.06 242.172C482.716 244.271 481.138 246.214 479.368 247.954C478.622 248.687 477.771 249.417 476.74 249.537C475.71 249.656 474.525 248.862 474.617 247.811L475.632 236.173C475.697 235.419 475.748 234.599 475.335 233.97C474.9 233.307 474.08 233.049 473.325 232.837L463.788 230.158C461.715 229.576 461.7 226.293 463.255 224.781C464.81 223.27 467.101 222.953 469.174 222.368C471.247 221.784 473.488 220.543 473.862 218.388L476.283 204.444C476.49 203.252 477.29 201.69 478.393 202.145ZM221.802 5.5536L220.041 7.00936C208.305 16.7363 196.741 26.9337 188.134 39.5779C179.097 52.8544 173.549 69.3177 176.24 85.232C180.16 108.423 200.555 126.892 201.427 150.407C201.543 153.53 204.67 155.474 207.287 157.114C217.612 163.587 225.264 173.859 230.313 185.075C235.204 195.941 237.815 207.715 239.714 219.515L239.896 220.657C240.178 222.457 240.385 224.505 239.244 225.909C238.102 227.314 235.168 226.822 235.282 225.004C236.621 203.623 228.981 181.812 214.654 166.108C210.931 162.029 206.608 158.248 201.366 156.65C201.033 164.885 198.306 173.277 192.536 179.064C186.765 184.85 177.661 187.494 170.19 184.301C162.719 181.108 158.149 171.466 161.511 163.967C164.328 157.685 171.323 154.511 177.983 153.174C184.517 151.861 191.291 151.793 197.85 152.973C198.733 153.132 199.117 151.877 199.1 150.966C198.625 126.524 176.412 107.388 173.496 83.1214C171.903 69.8598 176.351 56.5101 182.807 44.8749C191.286 29.5953 203.347 16.3885 217.705 6.66329L218.08 6.41525C219.23 5.67894 220.571 5.05096 221.802 5.5536ZM294.941 130.042C291.727 132.145 291.809 136.812 291.544 140.69C291.179 146.009 289.381 151.333 285.874 155.297C282.367 159.26 277.039 161.695 271.838 161.03C270.492 160.858 270.083 162.838 270.259 164.206C273.283 187.648 287.265 210.664 308.996 219.058C322.282 224.19 337.288 223.508 350.834 219.134C364.056 214.864 376.024 207.27 386.961 198.577L387.759 197.939C389.346 196.665 390.94 195.337 392.042 193.614C393.16 191.867 393.71 189.8 393.978 187.733C395.413 176.66 388.138 165.074 377.657 161.741C376.424 161.349 376.709 159.314 377.791 158.595C378.874 157.877 380.267 157.926 381.503 157.541C384.852 156.501 386.392 152.622 387.156 149.147C388.206 144.373 388.501 138.927 385.592 135.031C381.66 129.765 374.015 129.772 367.533 130.276L357.015 131.095C353.385 131.378 348.712 132.679 348.542 136.378C348.175 144.345 344.725 152.281 338.629 157.297C332.532 162.314 323.754 164.048 316.517 160.977C309.395 157.955 304.363 150.07 305.186 142.284L305.231 141.908C305.659 138.614 305.423 135.038 303.526 132.334C301.629 129.629 297.688 128.245 294.941 130.042ZM381.814 5.54862C377.124 6.90474 372.619 9.09202 368.917 12.3189C363.742 16.8286 360.302 23.3453 359.465 30.2236C359.168 32.6607 359.645 35.8039 361.972 36.4587C367.657 38.0581 372.743 41.7671 376.058 46.7295C370.683 43.4768 364.792 41.11 358.683 39.7494L384.505 54.6107C386.002 55.4721 387.556 56.387 388.497 57.8509C389.438 59.3149 389.537 61.4998 388.243 62.6529L386.438 61.2241C381.914 57.6628 377.289 54.2107 372.226 51.5155C368.376 49.4662 364.312 47.8762 360.227 46.3615L357.997 45.5405C350.433 42.7651 342.801 39.9721 334.835 38.8631C327.44 37.8339 319.849 38.2908 312.626 40.2001L311.201 40.5714C301.443 43.0828 291.269 45.1363 283.202 51.2044C278.403 54.8139 274.645 59.6461 271.077 64.5124L270.235 65.6739C263.146 75.574 256.667 87.7798 260.815 99.1385C279.859 96.7527 294.695 81.7663 311.946 73.2233C313.265 72.5704 315.439 72.3706 315.64 73.8482L296.336 85.4508C296.872 88.4469 296.365 91.625 294.926 94.2956C309.03 90.2421 322.216 82.9227 333.202 73.0566L333.901 72.4234C335.643 70.8277 339.001 69.5075 339.743 71.7697L338.799 72.3063C335.335 74.2883 331.889 76.4562 329.5 79.6657C326.895 83.167 325.858 88.2569 328.167 91.9668L352.537 77.3726C353.527 76.7798 354.606 76.1657 355.749 76.2877C356.891 76.4097 357.962 77.6612 357.469 78.7163L356.64 78.892C354.01 79.4604 351.342 80.1726 349.294 81.9154C347.03 83.8416 345.858 87.4526 347.54 89.9192C350.558 94.3437 353.006 99.169 354.804 104.234C354.843 102.019 357.811 100.886 359.768 101.859C361.724 102.831 362.76 105.026 363.469 107.12C365.497 113.111 366.033 119.618 365.013 125.869C371.141 128.07 378.328 125.47 384.223 128.254C389.694 130.838 392.371 137.541 391.99 143.664C391.61 149.788 388.765 155.449 385.728 160.75C394.218 167.44 398.754 178.965 397.147 189.766C398.628 189.52 399.878 188.221 400.088 186.71L403.455 188.871C398.189 191.899 394.442 197.518 393.624 203.615C416.763 181.591 424.446 146.685 421.107 114.632L420.977 113.436C419.654 101.861 416.505 89.7961 407.947 82.129C412.535 79.4382 418.42 80.4966 423.33 78.4761C427.969 76.5671 431.157 72.142 433.31 67.5475C440.509 52.1873 438.03 32.644 427.234 19.6454C416.437 6.64682 397.907 0.895544 381.814 5.54862ZM306.169 198.184C306.899 198.307 307.727 198.558 308.013 199.252C308.469 200.36 307.19 201.373 306.083 201.792C304.476 202.401 302.789 202.791 301.081 202.948C299.647 203.08 297.839 202.799 297.396 201.406C297.104 200.491 297.611 199.462 298.377 198.897C299.143 198.332 300.112 198.142 301.053 198.038C302.754 197.851 304.481 197.9 306.169 198.184ZM279.993 182.3C285.029 188.319 292.907 191.507 300.677 191.569C308.448 191.631 316.072 188.774 322.523 184.368L323.065 183.997C323.885 183.443 324.735 182.923 325.696 182.753C326.87 182.545 328.267 183.046 328.666 184.189C321.918 190.018 313.46 193.867 304.644 194.681C295.827 195.495 286.695 193.194 279.501 187.946C278.203 187 276.862 185.754 276.808 184.13C276.755 182.507 278.958 181.063 279.993 182.3ZM174.44 156.803C170.939 157.939 167.414 159.605 165.205 162.592C161.924 167.031 162.497 173.765 166.042 177.989C169.586 182.213 175.58 183.9 180.927 182.777C186.274 181.654 190.917 177.985 193.921 173.348C196.926 168.711 198.397 163.176 198.843 157.641C198.918 156.713 198.752 155.485 197.852 155.315C190.087 153.845 181.966 154.362 174.44 156.803ZM298.523 135.176C298.669 136.453 298.183 137.706 297.737 138.908C295.215 145.702 293.68 152.873 293.197 160.119C293.119 161.292 293.074 162.509 293.497 163.604C293.897 164.638 294.824 165.537 295.9 165.599L296.091 165.601C297.07 165.566 297.535 167.05 296.919 167.825C296.303 168.6 295.148 168.687 294.209 168.403C292.281 167.819 290.899 165.994 290.34 164.029C289.78 162.064 289.923 159.966 290.203 157.94C291.153 151.072 293.618 144.412 293.739 137.477C293.773 135.52 294.167 132.882 296.085 132.727C297.345 132.624 298.377 133.9 298.523 135.176ZM322.485 111.996C318.48 112.834 315.423 116.176 313.346 119.758C309.092 127.096 307.879 136.195 310.06 144.42C311.04 148.114 312.714 151.683 315.341 154.421C317.968 157.159 321.617 158.996 325.377 158.933C328.002 158.889 330.55 157.941 332.83 156.618C340.444 152.2 345.281 143.245 344.865 134.339C344.449 125.433 338.799 116.985 330.807 113.321C328.204 112.128 325.281 111.411 322.485 111.996ZM267.214 108.345C260.059 111.041 255.44 118.599 254.455 126.295C253.471 133.991 255.593 141.777 258.619 148.902C259.433 150.821 260.36 152.772 261.924 154.127C263.488 155.482 265.857 156.09 267.634 155.041C268.462 154.553 269.235 155.695 269.863 156.429C271.114 157.891 273.314 158.016 275.183 157.636C281.341 156.385 286.073 150.912 287.988 144.83C289.84 138.95 289.444 132.586 288.35 126.502L288.235 125.874C287.081 119.738 284.474 112.843 278.601 111.015C275.521 110.057 271.806 110.617 269.426 108.411C268.851 107.879 267.943 108.07 267.214 108.345ZM380.925 134.36C383.345 137.088 382.354 141.324 381.144 144.823L381.045 145.106C380.561 146.478 380.059 147.883 379.133 148.996C378.206 150.109 376.752 150.886 375.348 150.589C373.945 150.292 372.851 148.636 373.44 147.307C374.172 145.658 376.659 145.573 377.557 144.011L375.132 143.778C373.498 143.621 371.74 143.41 370.529 142.283C369.319 141.156 369.167 138.771 370.639 138.033C371.659 137.521 372.887 138.022 373.831 138.668C374.775 139.313 375.678 140.129 376.802 140.305C377.926 140.481 379.293 139.583 379.061 138.45C378.739 136.874 379.534 135.129 380.925 134.36ZM325.564 145.008C325.756 146.093 325.827 147.243 325.428 148.267C325.029 149.292 324.056 150.149 322.974 150.103C321.297 150.032 320.4 148.068 320.107 146.388C319.745 144.312 320.31 141.455 322.377 141.301C324.147 141.168 325.25 143.233 325.564 145.008ZM273.918 140.602C274.753 141.839 274.635 143.493 274.303 144.955C273.879 146.827 272.812 148.915 270.933 149.11C269.237 149.287 267.789 147.743 267.234 146.103C266.557 144.102 266.886 141.657 268.422 140.229C269.958 138.802 272.741 138.857 273.918 140.602ZM275.482 119.481C276.231 119.831 276.76 120.792 276.38 121.537L275.655 121.731C271.527 122.851 267.126 124.41 265.155 128.207C264.682 129.116 264.376 130.12 263.787 130.957C263.199 131.794 262.207 132.459 261.217 132.248C260.089 132.006 259.436 130.685 259.557 129.519C259.677 128.353 260.375 127.336 261.122 126.444C264.161 122.812 268.443 120.279 273.049 119.388C273.859 119.231 274.732 119.13 275.482 119.481ZM328.24 121.577C329.474 122.589 330.412 123.937 331.66 124.932C332.713 125.773 334.045 126.438 334.524 127.71C335.003 128.982 333.562 130.779 332.517 129.927C329.788 127.703 326.759 125.861 323.542 124.468C322.083 123.836 322.414 121.34 323.837 120.629C325.26 119.918 327.006 120.566 328.24 121.577ZM312.951 113.599C310.261 114.501 308.35 117.38 308.533 120.254C309.561 119.719 310.345 118.718 310.628 117.579L310.588 117.464C311.782 116.504 312.633 115.113 312.951 113.599Z" fill="#141414"/>
<path fill-rule="evenodd" clip-rule="evenodd" d="M161.395 458.103C162.477 458.113 163.472 458.623 164.417 459.184L164.928 459.493C170.723 463.021 176.838 466.006 183.169 468.397C184.04 468.725 183.769 470.211 182.921 470.594C182.073 470.978 181.094 470.636 180.229 470.294L161.53 462.894C160.334 462.42 158.944 461.698 158.84 460.397C158.735 459.1 160.116 458.092 161.395 458.103Z" fill="#E7EAEE"/>
<path fill-rule="evenodd" clip-rule="evenodd" d="M131.585 437.382L189.431 458.253L189.794 458.391C191.323 458.999 192.977 460.038 192.813 461.645C192.68 462.953 191.256 463.797 189.964 463.753C188.87 463.715 187.86 463.221 186.894 462.677L186.371 462.377C178.305 457.724 169.843 453.886 161.164 450.57C151.333 446.813 141.224 443.726 131.098 440.884C129.55 440.45 127.588 439.043 128.475 437.681C129.098 436.726 130.523 436.999 131.585 437.382Z" fill="#E7EAEE"/>
<path d="M209.051 333.47C211.104 335.24 212.794 337.381 212.244 339.263C211.184 342.892 203.034 340.003 203.232 336.588C203.431 333.173 207.984 332.55 209.051 333.47Z" fill="#383B51"/>
</svg>
